<svg width="179" height="56" viewBox="0 0 179 56" fill="none" xmlns="http://www.w3.org/2000/svg">
<g clip-path="url(#clip0_1_788)">
<path d="M19.5152 0V19.5152H0V36.4848H19.5152V56H36.4848V36.4848H56V19.5152H36.4848V0H19.5152Z" fill="#CC0000"/>
</g>
<path d="M75.66 23V9H81.72C82.9733 9 84.0533 9.20667 84.96 9.62C85.8667 10.02 86.5667 10.6 87.06 11.36C87.5533 12.12 87.8 13.0267 87.8 14.08C87.8 15.12 87.5533 16.02 87.06 16.78C86.5667 17.5267 85.8667 18.1 84.96 18.5C84.0533 18.9 82.9733 19.1 81.72 19.1H77.46L78.9 17.68V23H75.66ZM84.56 23L81.06 17.92H84.52L88.06 23H84.56ZM78.9 18.04L77.46 16.52H81.54C82.54 16.52 83.2867 16.3067 83.78 15.88C84.2733 15.44 84.52 14.84 84.52 14.08C84.52 13.3067 84.2733 12.7067 83.78 12.28C83.2867 11.8533 82.54 11.64 81.54 11.64H77.46L78.9 10.1V18.04ZM97.067 23.24C95.987 23.24 94.9804 23.0667 94.047 22.72C93.127 22.36 92.327 21.8533 91.647 21.2C90.967 20.5467 90.4337 19.78 90.047 18.9C89.6737 18.02 89.487 17.0533 89.487 16C89.487 14.9467 89.6737 13.98 90.047 13.1C90.4337 12.22 90.967 11.4533 91.647 10.8C92.3404 10.1467 93.147 9.64667 94.067 9.3C94.987 8.94 95.9937 8.76 97.087 8.76C98.3004 8.76 99.3937 8.97333 100.367 9.4C101.354 9.81333 102.18 10.4267 102.847 11.24L100.767 13.16C100.287 12.6133 99.7537 12.2067 99.167 11.94C98.5804 11.66 97.9404 11.52 97.247 11.52C96.5937 11.52 95.9937 11.6267 95.447 11.84C94.9004 12.0533 94.427 12.36 94.027 12.76C93.627 13.16 93.3137 13.6333 93.087 14.18C92.8737 14.7267 92.767 15.3333 92.767 16C92.767 16.6667 92.8737 17.2733 93.087 17.82C93.3137 18.3667 93.627 18.84 94.027 19.24C94.427 19.64 94.9004 19.9467 95.447 20.16C95.9937 20.3733 96.5937 20.48 97.247 20.48C97.9404 20.48 98.5804 20.3467 99.167 20.08C99.7537 19.8 100.287 19.38 100.767 18.82L102.847 20.74C102.18 21.5533 101.354 22.1733 100.367 22.6C99.3937 23.0267 98.2937 23.24 97.067 23.24ZM102.941 23L109.181 9H112.381L118.641 23H115.241L110.121 10.64H111.401L106.261 23H102.941ZM106.061 20L106.921 17.54H114.121L115.001 20H106.061ZM129.196 47.24C128.116 47.24 127.109 47.0667 126.176 46.72C125.256 46.36 124.456 45.8533 123.776 45.2C123.096 44.5467 122.563 43.78 122.176 42.9C121.803 42.02 121.616 41.0533 121.616 40C121.616 38.9467 121.803 37.98 122.176 37.1C122.563 36.22 123.096 35.4533 123.776 34.8C124.469 34.1467 125.276 33.6467 126.196 33.3C127.116 32.94 128.123 32.76 129.216 32.76C130.429 32.76 131.523 32.9733 132.496 33.4C133.483 33.8133 134.309 34.4267 134.976 35.24L132.896 37.16C132.416 36.6133 131.883 36.2067 131.296 35.94C130.709 35.66 130.069 35.52 129.376 35.52C128.723 35.52 128.123 35.6267 127.576 35.84C127.029 36.0533 126.556 36.36 126.156 36.76C125.756 37.16 125.443 37.6333 125.216 38.18C125.003 38.7267 124.896 39.3333 124.896 40C124.896 40.6667 125.003 41.2733 125.216 41.82C125.443 42.3667 125.756 42.84 126.156 43.24C126.556 43.64 127.029 43.9467 127.576 44.16C128.123 44.3733 128.723 44.48 129.376 44.48C130.069 44.48 130.709 44.3467 131.296 44.08C131.883 43.8 132.416 43.38 132.896 42.82L134.976 44.74C134.309 45.5533 133.483 46.1733 132.496 46.6C131.523 47.0267 130.423 47.24 129.196 47.24ZM136.944 47V36.24H139.924V39.28L139.504 38.4C139.824 37.64 140.337 37.0667 141.044 36.68C141.751 36.28 142.611 36.08 143.624 36.08V38.96C143.491 38.9467 143.371 38.94 143.264 38.94C143.157 38.9267 143.044 38.92 142.924 38.92C142.071 38.92 141.377 39.1667 140.844 39.66C140.324 40.14 140.064 40.8933 140.064 41.92V47H136.944ZM150.521 47.16C149.374 47.16 148.354 46.92 147.461 46.44C146.581 45.96 145.881 45.3067 145.361 44.48C144.854 43.64 144.601 42.6867 144.601 41.62C144.601 40.54 144.854 39.5867 145.361 38.76C145.881 37.92 146.581 37.2667 147.461 36.8C148.354 36.32 149.374 36.08 150.521 36.08C151.654 36.08 152.668 36.32 153.561 36.8C154.454 37.2667 155.154 37.9133 155.661 38.74C156.168 39.5667 156.421 40.5267 156.421 41.62C156.421 42.6867 156.168 43.64 155.661 44.48C155.154 45.3067 154.454 45.96 153.561 46.44C152.668 46.92 151.654 47.16 150.521 47.16ZM150.521 44.6C151.041 44.6 151.508 44.48 151.921 44.24C152.334 44 152.661 43.66 152.901 43.22C153.141 42.7667 153.261 42.2333 153.261 41.62C153.261 40.9933 153.141 40.46 152.901 40.02C152.661 39.58 152.334 39.24 151.921 39C151.508 38.76 151.041 38.64 150.521 38.64C150.001 38.64 149.534 38.76 149.121 39C148.708 39.24 148.374 39.58 148.121 40.02C147.881 40.46 147.761 40.9933 147.761 41.62C147.761 42.2333 147.881 42.7667 148.121 43.22C148.374 43.66 148.708 44 149.121 44.24C149.534 44.48 150.001 44.6 150.521 44.6ZM162.126 47.16C161.206 47.16 160.32 47.0533 159.466 46.84C158.626 46.6133 157.96 46.3333 157.466 46L158.506 43.76C159 44.0667 159.58 44.32 160.246 44.52C160.926 44.7067 161.593 44.8 162.246 44.8C162.966 44.8 163.473 44.7133 163.766 44.54C164.073 44.3667 164.226 44.1267 164.226 43.82C164.226 43.5667 164.106 43.38 163.866 43.26C163.64 43.1267 163.333 43.0267 162.946 42.96C162.56 42.8933 162.133 42.8267 161.666 42.76C161.213 42.6933 160.753 42.6067 160.286 42.5C159.82 42.38 159.393 42.2067 159.006 41.98C158.62 41.7533 158.306 41.4467 158.066 41.06C157.84 40.6733 157.726 40.1733 157.726 39.56C157.726 38.88 157.92 38.28 158.306 37.76C158.706 37.24 159.28 36.8333 160.026 36.54C160.773 36.2333 161.666 36.08 162.706 36.08C163.44 36.08 164.186 36.16 164.946 36.32C165.706 36.48 166.34 36.7133 166.846 37.02L165.806 39.24C165.286 38.9333 164.76 38.7267 164.226 38.62C163.706 38.5 163.2 38.44 162.706 38.44C162.013 38.44 161.506 38.5333 161.186 38.72C160.866 38.9067 160.706 39.1467 160.706 39.44C160.706 39.7067 160.82 39.9067 161.046 40.04C161.286 40.1733 161.6 40.28 161.986 40.36C162.373 40.44 162.793 40.5133 163.246 40.58C163.713 40.6333 164.18 40.72 164.646 40.84C165.113 40.96 165.533 41.1333 165.906 41.36C166.293 41.5733 166.606 41.8733 166.846 42.26C167.086 42.6333 167.206 43.1267 167.206 43.74C167.206 44.4067 167.006 45 166.606 45.52C166.206 46.0267 165.626 46.4267 164.866 46.72C164.12 47.0133 163.206 47.16 162.126 47.16ZM172.751 47.16C171.831 47.16 170.945 47.0533 170.091 46.84C169.251 46.6133 168.585 46.3333 168.091 46L169.131 43.76C169.625 44.0667 170.205 44.32 170.871 44.52C171.551 44.7067 172.218 44.8 172.871 44.8C173.591 44.8 174.098 44.7133 174.391 44.54C174.698 44.3667 174.851 44.1267 174.851 43.82C174.851 43.5667 174.731 43.38 174.491 43.26C174.265 43.1267 173.958 43.0267 173.571 42.96C173.185 42.8933 172.758 42.8267 172.291 42.76C171.838 42.6933 171.378 42.6067 170.911 42.5C170.445 42.38 170.018 42.2067 169.631 41.98C169.245 41.7533 168.931 41.4467 168.691 41.06C168.465 40.6733 168.351 40.1733 168.351 39.56C168.351 38.88 168.545 38.28 168.931 37.76C169.331 37.24 169.905 36.8333 170.651 36.54C171.398 36.2333 172.291 36.08 173.331 36.08C174.065 36.08 174.811 36.16 175.571 36.32C176.331 36.48 176.965 36.7133 177.471 37.02L176.431 39.24C175.911 38.9333 175.385 38.7267 174.851 38.62C174.331 38.5 173.825 38.44 173.331 38.44C172.638 38.44 172.131 38.5333 171.811 38.72C171.491 38.9067 171.331 39.1467 171.331 39.44C171.331 39.7067 171.445 39.9067 171.671 40.04C171.911 40.1733 172.225 40.28 172.611 40.36C172.998 40.44 173.418 40.5133 173.871 40.58C174.338 40.6333 174.805 40.72 175.271 40.84C175.738 40.96 176.158 41.1333 176.531 41.36C176.918 41.5733 177.231 41.8733 177.471 42.26C177.711 42.6333 177.831 43.1267 177.831 43.74C177.831 44.4067 177.631 45 177.231 45.52C176.831 46.0267 176.251 46.4267 175.491 46.72C174.745 47.0133 173.831 47.16 172.751 47.16Z" fill="#191919"/>
<path d="M75.66 47V33H81.72C82.9733 33 84.0533 33.2067 84.96 33.62C85.8667 34.02 86.5667 34.6 87.06 35.36C87.5533 36.12 87.8 37.0267 87.8 38.08C87.8 39.12 87.5533 40.02 87.06 40.78C86.5667 41.5267 85.8667 42.1 84.96 42.5C84.0533 42.9 82.9733 43.1 81.72 43.1H77.46L78.9 41.68V47H75.66ZM84.56 47L81.06 41.92H84.52L88.06 47H84.56ZM78.9 42.04L77.46 40.52H81.54C82.54 40.52 83.2867 40.3067 83.78 39.88C84.2733 39.44 84.52 38.84 84.52 38.08C84.52 37.3067 84.2733 36.7067 83.78 36.28C83.2867 35.8533 82.54 35.64 81.54 35.64H77.46L78.9 34.1V42.04ZM95.487 47.16C94.2604 47.16 93.1804 46.92 92.247 46.44C91.327 45.96 90.6137 45.3067 90.107 44.48C89.6004 43.64 89.347 42.6867 89.347 41.62C89.347 40.54 89.5937 39.5867 90.087 38.76C90.5937 37.92 91.2804 37.2667 92.147 36.8C93.0137 36.32 93.9937 36.08 95.087 36.08C96.1404 36.08 97.087 36.3067 97.927 36.76C98.7804 37.2 99.4537 37.84 99.947 38.68C100.44 39.5067 100.687 40.5 100.687 41.66C100.687 41.78 100.68 41.92 100.667 42.08C100.654 42.2267 100.64 42.3667 100.627 42.5H91.887V40.68H98.987L97.787 41.22C97.787 40.66 97.6737 40.1733 97.447 39.76C97.2204 39.3467 96.907 39.0267 96.507 38.8C96.107 38.56 95.6404 38.44 95.107 38.44C94.5737 38.44 94.1004 38.56 93.687 38.8C93.287 39.0267 92.9737 39.3533 92.747 39.78C92.5204 40.1933 92.407 40.6867 92.407 41.26V41.74C92.407 42.3267 92.5337 42.8467 92.787 43.3C93.0537 43.74 93.4204 44.08 93.887 44.32C94.367 44.5467 94.927 44.66 95.567 44.66C96.1404 44.66 96.6404 44.5733 97.067 44.4C97.507 44.2267 97.907 43.9667 98.267 43.62L99.927 45.42C99.4337 45.98 98.8137 46.4133 98.067 46.72C97.3204 47.0133 96.4604 47.16 95.487 47.16ZM107.384 47.16C106.371 47.16 105.458 46.9333 104.644 46.48C103.831 46.0133 103.184 45.3667 102.704 44.54C102.238 43.7133 102.004 42.74 102.004 41.62C102.004 40.4867 102.238 39.5067 102.704 38.68C103.184 37.8533 103.831 37.2133 104.644 36.76C105.458 36.3067 106.371 36.08 107.384 36.08C108.291 36.08 109.084 36.28 109.764 36.68C110.444 37.08 110.971 37.6867 111.344 38.5C111.718 39.3133 111.904 40.3533 111.904 41.62C111.904 42.8733 111.724 43.9133 111.364 44.74C111.004 45.5533 110.484 46.16 109.804 46.56C109.138 46.96 108.331 47.16 107.384 47.16ZM107.924 44.6C108.431 44.6 108.891 44.48 109.304 44.24C109.718 44 110.044 43.66 110.284 43.22C110.538 42.7667 110.664 42.2333 110.664 41.62C110.664 40.9933 110.538 40.46 110.284 40.02C110.044 39.58 109.718 39.24 109.304 39C108.891 38.76 108.431 38.64 107.924 38.64C107.404 38.64 106.938 38.76 106.524 39C106.111 39.24 105.778 39.58 105.524 40.02C105.284 40.46 105.164 40.9933 105.164 41.62C105.164 42.2333 105.284 42.7667 105.524 43.22C105.778 43.66 106.111 44 106.524 44.24C106.938 44.48 107.404 44.6 107.924 44.6ZM110.744 47V44.8L110.804 41.6L110.604 38.42V32.16H113.724V47H110.744Z" fill="#00A106"/>
<defs>
<clipPath id="clip0_1_788">
<rect width="56" height="56" fill="white"/>
</clipPath>
</defs>
</svg>
