<svg width="1512" height="744" viewBox="0 0 1512 744" fill="none" xmlns="http://www.w3.org/2000/svg">
<path d="M854.5 -27.5C750.518 -81.0599 648.437 -16.8211 535.024 -45.4262C535.024 -45.4262 327.911 -69.2173 198.768 -45.4262C96.8226 -26.6454 -14.9263 -57.021 -52.7184 39.5058C-77.6808 103.264 -16.2687 144.808 -25.3064 212.679C-36.4698 296.514 -147.127 321.18 -127.723 403.5C-113.871 462.266 55.7386 495.705 -25.3064 519.316C-106.351 542.927 -54.8967 746.603 27.6382 728.888C70.5388 719.681 68.624 668.227 109.261 651.678C186.309 620.3 224.855 735.26 307.803 728.888C436.621 718.993 536.139 636.671 662 607.5C830.315 568.49 729.834 774.971 899.018 739.919C978.158 723.522 1138.08 624.938 1217 607.5C1331.51 582.197 1370.03 677.427 1487 669C1606.97 660.357 1588.74 691.993 1644.65 585.497C1687.1 504.643 1699.32 424.805 1644.65 351.658C1581.4 267.027 1583.35 204.358 1487 161C1420.32 130.994 1436.67 58.2668 1366 39.5058C1299.26 21.7881 1099.87 52.2695 1032 39.5058C925.623 19.4991 950.726 22.0654 854.5 -27.5Z" fill="#FFFDD0"/>
</svg>
